<?xml version="1.0" encoding="UTF-8"?>
<!-- Created with Inkscape (http://www.inkscape.org/) -->
<svg width="39.821mm" height="39.831mm" version="1.1" viewBox="0 0 39.821 39.831" xmlns="http://www.w3.org/2000/svg">
 <g transform="translate(79.296 43.47)">
  <path d="m-79.296-3.6534c0-0.00792 0.59632-1.0889 1.3252-2.4022 6.141-11.066 10.032-18.351 12.577-23.547 0.32579-0.66529 0.59971-1.217 0.60871-1.226 9e-3 -9e-3 0.14793 0.08768 0.30873 0.21485 1.0188 0.80568 1.9652 1.3873 3.451 2.1207 0.74899 0.36972 1.8032 0.84814 1.869 0.84814 0.0096 0-0.1775-0.14099-0.41568-0.3133-0.8137-0.58868-1.5484-1.1775-2.3843-1.9108-0.61955-0.54354-2.2578-2.1821-2.235-2.2355 0.01071-0.02508 0.26576-0.58422 0.56679-1.2425 1.0096-2.208 2.1517-4.9376 4.0655-9.7164 0.0896-0.22373 0.17038-0.40682 0.17953-0.40687 0.0091-4.7e-5 0.53228 1.2154 1.1625 2.7009 2.3011 5.4238 3.5551 8.1642 5.6863 12.426 1.3698 2.7393 4.0404 7.8607 6.6295 12.713 0.92563 1.7348 1.683 3.1617 1.683 3.1708 0 0.0091-0.03366-0.0054-0.07481-0.03217-0.18757-0.12208-0.91935-0.50549-1.309-0.68581-1.0941-0.50636-2.6696-1.0553-3.9859-1.3888-0.03657-0.0093 0.21778 0.13897 0.56523 0.3294 1.384 0.75858 2.6843 1.6025 3.8236 2.4818 0.58304 0.44994 2.327 1.8539 2.3757 1.9125 0.06559 0.079035 3.3639 6.1764 3.3491 6.1913-7e-3 0.00697-0.45255-0.23667-0.99017-0.54142-6.085-3.4492-10.409-5.278-14.455-6.1138-0.12608-0.02604-0.12382 0.03141-0.02137-0.54251 0.12014-0.67294 0.15724-1.2589 0.13828-2.1834-0.01855-0.9044-0.05718-1.3054-0.19054-1.9783-0.53218-2.685-1.9006-4.6352-3.5941-5.1222-0.3076-0.08846-0.93806-0.12294-1.2317-0.06737-1.0479 0.19827-1.9972 0.94051-2.7253 2.1307-1.1655 1.9054-1.5804 4.8079-1.0546 7.3781 0.03519 0.17202 0.05997 0.31678 0.05506 0.32169-0.0049 0.0049-0.23075 0.05505-0.50188 0.11144-3.8503 0.80071-8.1944 2.645-14.114 5.9919-0.60966 0.34472-1.1146 0.62675-1.1221 0.62675-0.0075 0-0.01366-0.00647-0.01366-0.014386z" fill="#1692d0" stroke-width=".033249"/>
 </g>
</svg>
